<mxfile host="app.diagrams.net" modified="2023-12-10T09:37:50.971Z" agent="Mozilla/5.0 (X11; Ubuntu; Linux x86_64; rv:109.0) Gecko/20100101 Firefox/119.0" etag="bjmBIQJ-1zLBtT1Uj5Au" version="22.1.7" type="device" pages="4">
  <diagram name="Page-1" id="IDCbD7l_6MluZJZ_xln4">
    <mxGraphModel dx="1296" dy="766" grid="1" gridSize="10" guides="1" tooltips="1" connect="1" arrows="1" fold="1" page="1" pageScale="1" pageWidth="850" pageHeight="1100" math="0" shadow="0">
      <root>
        <mxCell id="0" />
        <mxCell id="1" parent="0" />
        <mxCell id="4TrGGFCkRA6SEfvuVEdm-3" value="" style="rounded=0;whiteSpace=wrap;html=1;fillColor=#fff2cc;strokeColor=none;" vertex="1" parent="1">
          <mxGeometry x="520" y="200" width="180" height="230" as="geometry" />
        </mxCell>
        <mxCell id="4TrGGFCkRA6SEfvuVEdm-2" value="" style="rounded=0;whiteSpace=wrap;html=1;fillColor=#d5e8d4;strokeColor=none;" vertex="1" parent="1">
          <mxGeometry x="520" y="430" width="180" height="210" as="geometry" />
        </mxCell>
        <mxCell id="4TrGGFCkRA6SEfvuVEdm-1" value="" style="rounded=0;whiteSpace=wrap;html=1;fillColor=#d5e8d4;strokeColor=none;" vertex="1" parent="1">
          <mxGeometry x="100" y="200" width="420" height="440" as="geometry" />
        </mxCell>
        <mxCell id="JZ1iv6NdPlyFGtOL2_Ek-1" value="PICORV32" style="rounded=0;whiteSpace=wrap;html=1;" vertex="1" parent="1">
          <mxGeometry x="320" y="250" width="140" height="360" as="geometry" />
        </mxCell>
        <mxCell id="JZ1iv6NdPlyFGtOL2_Ek-2" value="2KiB SRAM" style="rounded=0;whiteSpace=wrap;html=1;" vertex="1" parent="1">
          <mxGeometry x="120" y="250" width="120" height="60" as="geometry" />
        </mxCell>
        <mxCell id="JZ1iv6NdPlyFGtOL2_Ek-3" value="QSPI &lt;br&gt;Flash Controller" style="rounded=0;whiteSpace=wrap;html=1;" vertex="1" parent="1">
          <mxGeometry x="120" y="350" width="120" height="60" as="geometry" />
        </mxCell>
        <mxCell id="JZ1iv6NdPlyFGtOL2_Ek-4" value="UART" style="rounded=0;whiteSpace=wrap;html=1;" vertex="1" parent="1">
          <mxGeometry x="120" y="450" width="120" height="60" as="geometry" />
        </mxCell>
        <mxCell id="JZ1iv6NdPlyFGtOL2_Ek-5" value="GPIO" style="rounded=0;whiteSpace=wrap;html=1;" vertex="1" parent="1">
          <mxGeometry x="120" y="550" width="120" height="60" as="geometry" />
        </mxCell>
        <mxCell id="JZ1iv6NdPlyFGtOL2_Ek-6" value="SIMD Approximate Multiplier" style="rounded=0;whiteSpace=wrap;html=1;" vertex="1" parent="1">
          <mxGeometry x="560" y="250" width="120" height="60" as="geometry" />
        </mxCell>
        <mxCell id="JZ1iv6NdPlyFGtOL2_Ek-7" value="SIMD Exact &lt;br&gt;Multiplier" style="rounded=0;whiteSpace=wrap;html=1;" vertex="1" parent="1">
          <mxGeometry x="560" y="350" width="120" height="60" as="geometry" />
        </mxCell>
        <mxCell id="JZ1iv6NdPlyFGtOL2_Ek-8" value="RISCV-IM Multiplier" style="rounded=0;whiteSpace=wrap;html=1;" vertex="1" parent="1">
          <mxGeometry x="560" y="450" width="120" height="60" as="geometry" />
        </mxCell>
        <mxCell id="JZ1iv6NdPlyFGtOL2_Ek-9" value="RISCV-IM Divider" style="rounded=0;whiteSpace=wrap;html=1;" vertex="1" parent="1">
          <mxGeometry x="560" y="550" width="120" height="60" as="geometry" />
        </mxCell>
        <mxCell id="JZ1iv6NdPlyFGtOL2_Ek-11" value="PCPI" style="rounded=0;whiteSpace=wrap;html=1;rotation=-90;" vertex="1" parent="1">
          <mxGeometry x="290" y="420" width="360" height="20" as="geometry" />
        </mxCell>
        <mxCell id="JZ1iv6NdPlyFGtOL2_Ek-12" value="flash_clk" style="text;html=1;strokeColor=none;fillColor=none;align=center;verticalAlign=middle;whiteSpace=wrap;rounded=0;" vertex="1" parent="1">
          <mxGeometry y="350" width="80" height="20" as="geometry" />
        </mxCell>
        <mxCell id="JZ1iv6NdPlyFGtOL2_Ek-13" value="&lt;div&gt;flash_csb&lt;/div&gt;" style="text;html=1;strokeColor=none;fillColor=none;align=center;verticalAlign=middle;whiteSpace=wrap;rounded=0;" vertex="1" parent="1">
          <mxGeometry y="370" width="80" height="20" as="geometry" />
        </mxCell>
        <mxCell id="JZ1iv6NdPlyFGtOL2_Ek-14" value="&lt;div&gt;flash_io [3:0]&lt;br&gt;&lt;/div&gt;" style="text;html=1;strokeColor=none;fillColor=none;align=center;verticalAlign=middle;whiteSpace=wrap;rounded=0;" vertex="1" parent="1">
          <mxGeometry y="390" width="80" height="20" as="geometry" />
        </mxCell>
        <mxCell id="JZ1iv6NdPlyFGtOL2_Ek-15" value="ser_tx" style="text;html=1;strokeColor=none;fillColor=none;align=center;verticalAlign=middle;whiteSpace=wrap;rounded=0;" vertex="1" parent="1">
          <mxGeometry y="460" width="80" height="20" as="geometry" />
        </mxCell>
        <mxCell id="JZ1iv6NdPlyFGtOL2_Ek-16" value="ser_rx" style="text;html=1;strokeColor=none;fillColor=none;align=center;verticalAlign=middle;whiteSpace=wrap;rounded=0;" vertex="1" parent="1">
          <mxGeometry y="480" width="80" height="20" as="geometry" />
        </mxCell>
        <mxCell id="JZ1iv6NdPlyFGtOL2_Ek-19" value="gpio[15:0]" style="text;html=1;strokeColor=none;fillColor=none;align=center;verticalAlign=middle;whiteSpace=wrap;rounded=0;" vertex="1" parent="1">
          <mxGeometry y="570" width="80" height="20" as="geometry" />
        </mxCell>
        <mxCell id="JZ1iv6NdPlyFGtOL2_Ek-20" value="" style="endArrow=classic;startArrow=classic;html=1;rounded=0;" edge="1" parent="1">
          <mxGeometry width="50" height="50" relative="1" as="geometry">
            <mxPoint x="250" y="280" as="sourcePoint" />
            <mxPoint x="310" y="280" as="targetPoint" />
          </mxGeometry>
        </mxCell>
        <mxCell id="JZ1iv6NdPlyFGtOL2_Ek-21" value="" style="endArrow=classic;startArrow=classic;html=1;rounded=0;" edge="1" parent="1">
          <mxGeometry width="50" height="50" relative="1" as="geometry">
            <mxPoint x="250" y="379.8" as="sourcePoint" />
            <mxPoint x="310" y="379.8" as="targetPoint" />
          </mxGeometry>
        </mxCell>
        <mxCell id="JZ1iv6NdPlyFGtOL2_Ek-22" value="" style="endArrow=classic;startArrow=classic;html=1;rounded=0;" edge="1" parent="1">
          <mxGeometry width="50" height="50" relative="1" as="geometry">
            <mxPoint x="250" y="480" as="sourcePoint" />
            <mxPoint x="310" y="480" as="targetPoint" />
          </mxGeometry>
        </mxCell>
        <mxCell id="JZ1iv6NdPlyFGtOL2_Ek-23" value="" style="endArrow=classic;startArrow=classic;html=1;rounded=0;" edge="1" parent="1">
          <mxGeometry width="50" height="50" relative="1" as="geometry">
            <mxPoint x="250" y="579.8" as="sourcePoint" />
            <mxPoint x="310" y="579.8" as="targetPoint" />
          </mxGeometry>
        </mxCell>
        <mxCell id="JZ1iv6NdPlyFGtOL2_Ek-24" value="" style="endArrow=classic;startArrow=classic;html=1;rounded=0;" edge="1" parent="1">
          <mxGeometry width="50" height="50" relative="1" as="geometry">
            <mxPoint x="490" y="579.8" as="sourcePoint" />
            <mxPoint x="550" y="579.8" as="targetPoint" />
          </mxGeometry>
        </mxCell>
        <mxCell id="JZ1iv6NdPlyFGtOL2_Ek-25" value="" style="endArrow=classic;startArrow=classic;html=1;rounded=0;" edge="1" parent="1">
          <mxGeometry width="50" height="50" relative="1" as="geometry">
            <mxPoint x="490" y="379.8" as="sourcePoint" />
            <mxPoint x="550" y="379.8" as="targetPoint" />
          </mxGeometry>
        </mxCell>
        <mxCell id="JZ1iv6NdPlyFGtOL2_Ek-26" value="" style="endArrow=classic;startArrow=classic;html=1;rounded=0;" edge="1" parent="1">
          <mxGeometry width="50" height="50" relative="1" as="geometry">
            <mxPoint x="490" y="479.6" as="sourcePoint" />
            <mxPoint x="550" y="479.6" as="targetPoint" />
          </mxGeometry>
        </mxCell>
        <mxCell id="JZ1iv6NdPlyFGtOL2_Ek-27" value="" style="endArrow=classic;startArrow=classic;html=1;rounded=0;" edge="1" parent="1">
          <mxGeometry width="50" height="50" relative="1" as="geometry">
            <mxPoint x="490" y="279.8" as="sourcePoint" />
            <mxPoint x="550" y="279.8" as="targetPoint" />
          </mxGeometry>
        </mxCell>
        <mxCell id="JZ1iv6NdPlyFGtOL2_Ek-29" value="" style="endArrow=classic;html=1;rounded=0;exitX=1;exitY=0.5;exitDx=0;exitDy=0;" edge="1" parent="1" source="JZ1iv6NdPlyFGtOL2_Ek-30">
          <mxGeometry width="50" height="50" relative="1" as="geometry">
            <mxPoint x="120" y="220" as="sourcePoint" />
            <mxPoint x="350" y="240" as="targetPoint" />
            <Array as="points">
              <mxPoint x="350" y="220" />
            </Array>
          </mxGeometry>
        </mxCell>
        <mxCell id="JZ1iv6NdPlyFGtOL2_Ek-30" value="irq [3:0]" style="text;html=1;strokeColor=none;fillColor=none;align=center;verticalAlign=middle;whiteSpace=wrap;rounded=0;" vertex="1" parent="1">
          <mxGeometry y="210" width="80" height="20" as="geometry" />
        </mxCell>
        <mxCell id="JZ1iv6NdPlyFGtOL2_Ek-31" value="aresetn" style="text;html=1;strokeColor=none;fillColor=none;align=center;verticalAlign=middle;whiteSpace=wrap;rounded=0;" vertex="1" parent="1">
          <mxGeometry y="180" width="80" height="20" as="geometry" />
        </mxCell>
        <mxCell id="JZ1iv6NdPlyFGtOL2_Ek-32" value="clk" style="text;html=1;strokeColor=none;fillColor=none;align=center;verticalAlign=middle;whiteSpace=wrap;rounded=0;" vertex="1" parent="1">
          <mxGeometry y="160" width="80" height="20" as="geometry" />
        </mxCell>
        <mxCell id="4TrGGFCkRA6SEfvuVEdm-4" value="Vanilla PicoRV32-IM" style="text;html=1;strokeColor=none;fillColor=none;align=center;verticalAlign=middle;whiteSpace=wrap;rounded=0;" vertex="1" parent="1">
          <mxGeometry x="560" y="130" width="140" height="30" as="geometry" />
        </mxCell>
        <mxCell id="4TrGGFCkRA6SEfvuVEdm-5" value="" style="rounded=0;whiteSpace=wrap;html=1;fillColor=#d5e8d4;strokeColor=none;" vertex="1" parent="1">
          <mxGeometry x="530" y="130" width="30" height="30" as="geometry" />
        </mxCell>
        <mxCell id="4TrGGFCkRA6SEfvuVEdm-6" value="SIMD Multiplication" style="text;html=1;strokeColor=none;fillColor=none;align=center;verticalAlign=middle;whiteSpace=wrap;rounded=0;" vertex="1" parent="1">
          <mxGeometry x="560" y="160" width="140" height="30" as="geometry" />
        </mxCell>
        <mxCell id="4TrGGFCkRA6SEfvuVEdm-7" value="" style="rounded=0;whiteSpace=wrap;html=1;fillColor=#fff2cc;strokeColor=none;" vertex="1" parent="1">
          <mxGeometry x="530" y="160" width="30" height="30" as="geometry" />
        </mxCell>
        <mxCell id="4TrGGFCkRA6SEfvuVEdm-8" value="" style="rounded=0;whiteSpace=wrap;html=1;fillColor=none;" vertex="1" parent="1">
          <mxGeometry x="530" y="160" width="170" height="30" as="geometry" />
        </mxCell>
        <mxCell id="4TrGGFCkRA6SEfvuVEdm-9" value="" style="rounded=0;whiteSpace=wrap;html=1;fillColor=none;" vertex="1" parent="1">
          <mxGeometry x="530" y="130" width="170" height="30" as="geometry" />
        </mxCell>
      </root>
    </mxGraphModel>
  </diagram>
  <diagram id="tB5BaHfChCRuWXjzsfdG" name="Page-2">
    <mxGraphModel dx="1851" dy="1031" grid="1" gridSize="10" guides="1" tooltips="1" connect="1" arrows="1" fold="1" page="1" pageScale="1" pageWidth="850" pageHeight="1100" math="0" shadow="0">
      <root>
        <mxCell id="0" />
        <mxCell id="1" parent="0" />
        <mxCell id="9mC7oX22zAmJfiWUvBk6-4" value="" style="rounded=0;whiteSpace=wrap;html=1;fillColor=#d5e8d4;dashed=1;strokeColor=none;" vertex="1" parent="1">
          <mxGeometry x="135" y="210" width="330" height="175" as="geometry" />
        </mxCell>
        <mxCell id="qTwooiuULq-QE-bd1LSr-1" value="X" style="ellipse;whiteSpace=wrap;html=1;aspect=fixed;" vertex="1" parent="1">
          <mxGeometry x="160" y="280" width="40" height="40" as="geometry" />
        </mxCell>
        <mxCell id="qTwooiuULq-QE-bd1LSr-2" value="X" style="ellipse;whiteSpace=wrap;html=1;aspect=fixed;" vertex="1" parent="1">
          <mxGeometry x="240" y="280" width="40" height="40" as="geometry" />
        </mxCell>
        <mxCell id="qTwooiuULq-QE-bd1LSr-3" value="X" style="ellipse;whiteSpace=wrap;html=1;aspect=fixed;" vertex="1" parent="1">
          <mxGeometry x="400" y="280" width="40" height="40" as="geometry" />
        </mxCell>
        <mxCell id="qTwooiuULq-QE-bd1LSr-4" value="X" style="ellipse;whiteSpace=wrap;html=1;aspect=fixed;" vertex="1" parent="1">
          <mxGeometry x="320" y="280" width="40" height="40" as="geometry" />
        </mxCell>
        <mxCell id="qTwooiuULq-QE-bd1LSr-5" value="" style="endArrow=classic;html=1;rounded=0;exitX=0.5;exitY=1;exitDx=0;exitDy=0;" edge="1" parent="1" source="qTwooiuULq-QE-bd1LSr-3">
          <mxGeometry width="50" height="50" relative="1" as="geometry">
            <mxPoint x="400" y="420" as="sourcePoint" />
            <mxPoint x="420" y="360" as="targetPoint" />
          </mxGeometry>
        </mxCell>
        <mxCell id="qTwooiuULq-QE-bd1LSr-6" value="" style="endArrow=classic;html=1;rounded=0;exitX=0.5;exitY=1;exitDx=0;exitDy=0;" edge="1" parent="1">
          <mxGeometry width="50" height="50" relative="1" as="geometry">
            <mxPoint x="339.5" y="320" as="sourcePoint" />
            <mxPoint x="339.5" y="360" as="targetPoint" />
          </mxGeometry>
        </mxCell>
        <mxCell id="qTwooiuULq-QE-bd1LSr-7" value="" style="endArrow=classic;html=1;rounded=0;exitX=0.5;exitY=1;exitDx=0;exitDy=0;" edge="1" parent="1">
          <mxGeometry width="50" height="50" relative="1" as="geometry">
            <mxPoint x="259.5" y="320" as="sourcePoint" />
            <mxPoint x="259.5" y="360" as="targetPoint" />
          </mxGeometry>
        </mxCell>
        <mxCell id="qTwooiuULq-QE-bd1LSr-8" value="" style="endArrow=classic;html=1;rounded=0;exitX=0.5;exitY=1;exitDx=0;exitDy=0;" edge="1" parent="1">
          <mxGeometry width="50" height="50" relative="1" as="geometry">
            <mxPoint x="179.5" y="320" as="sourcePoint" />
            <mxPoint x="179.5" y="360" as="targetPoint" />
          </mxGeometry>
        </mxCell>
        <mxCell id="qTwooiuULq-QE-bd1LSr-9" value="" style="endArrow=classic;html=1;rounded=0;entryX=0;entryY=0;entryDx=0;entryDy=0;" edge="1" parent="1" target="qTwooiuULq-QE-bd1LSr-1">
          <mxGeometry width="50" height="50" relative="1" as="geometry">
            <mxPoint x="160" y="240" as="sourcePoint" />
            <mxPoint x="160" y="280" as="targetPoint" />
            <Array as="points">
              <mxPoint x="160" y="270" />
            </Array>
          </mxGeometry>
        </mxCell>
        <mxCell id="qTwooiuULq-QE-bd1LSr-10" value="" style="endArrow=classic;html=1;rounded=0;entryX=0;entryY=0;entryDx=0;entryDy=0;" edge="1" parent="1">
          <mxGeometry width="50" height="50" relative="1" as="geometry">
            <mxPoint x="240" y="240" as="sourcePoint" />
            <mxPoint x="246" y="286" as="targetPoint" />
            <Array as="points">
              <mxPoint x="240" y="270" />
            </Array>
          </mxGeometry>
        </mxCell>
        <mxCell id="qTwooiuULq-QE-bd1LSr-11" value="" style="endArrow=classic;html=1;rounded=0;entryX=0;entryY=0;entryDx=0;entryDy=0;" edge="1" parent="1">
          <mxGeometry width="50" height="50" relative="1" as="geometry">
            <mxPoint x="320" y="240" as="sourcePoint" />
            <mxPoint x="326" y="286" as="targetPoint" />
            <Array as="points">
              <mxPoint x="320" y="270" />
            </Array>
          </mxGeometry>
        </mxCell>
        <mxCell id="qTwooiuULq-QE-bd1LSr-12" value="" style="endArrow=classic;html=1;rounded=0;entryX=0;entryY=0;entryDx=0;entryDy=0;" edge="1" parent="1">
          <mxGeometry width="50" height="50" relative="1" as="geometry">
            <mxPoint x="400" y="240" as="sourcePoint" />
            <mxPoint x="406" y="286" as="targetPoint" />
            <Array as="points">
              <mxPoint x="400" y="270" />
            </Array>
          </mxGeometry>
        </mxCell>
        <mxCell id="qTwooiuULq-QE-bd1LSr-13" value="" style="endArrow=classic;html=1;rounded=0;entryX=1;entryY=0;entryDx=0;entryDy=0;" edge="1" parent="1" target="qTwooiuULq-QE-bd1LSr-3">
          <mxGeometry width="50" height="50" relative="1" as="geometry">
            <mxPoint x="440" y="240" as="sourcePoint" />
            <mxPoint x="440" y="300" as="targetPoint" />
            <Array as="points">
              <mxPoint x="440" y="270" />
            </Array>
          </mxGeometry>
        </mxCell>
        <mxCell id="qTwooiuULq-QE-bd1LSr-14" value="" style="endArrow=classic;html=1;rounded=0;entryX=1;entryY=0;entryDx=0;entryDy=0;" edge="1" parent="1">
          <mxGeometry width="50" height="50" relative="1" as="geometry">
            <mxPoint x="360" y="240" as="sourcePoint" />
            <mxPoint x="354" y="286" as="targetPoint" />
            <Array as="points">
              <mxPoint x="360" y="270" />
            </Array>
          </mxGeometry>
        </mxCell>
        <mxCell id="qTwooiuULq-QE-bd1LSr-15" value="" style="endArrow=classic;html=1;rounded=0;entryX=1;entryY=0;entryDx=0;entryDy=0;" edge="1" parent="1">
          <mxGeometry width="50" height="50" relative="1" as="geometry">
            <mxPoint x="280" y="240" as="sourcePoint" />
            <mxPoint x="274" y="286" as="targetPoint" />
            <Array as="points">
              <mxPoint x="280" y="270" />
            </Array>
          </mxGeometry>
        </mxCell>
        <mxCell id="qTwooiuULq-QE-bd1LSr-16" value="" style="endArrow=classic;html=1;rounded=0;entryX=1;entryY=0;entryDx=0;entryDy=0;" edge="1" parent="1">
          <mxGeometry width="50" height="50" relative="1" as="geometry">
            <mxPoint x="200" y="240" as="sourcePoint" />
            <mxPoint x="194" y="286" as="targetPoint" />
            <Array as="points">
              <mxPoint x="200" y="270" />
            </Array>
          </mxGeometry>
        </mxCell>
        <mxCell id="qTwooiuULq-QE-bd1LSr-18" value="M0" style="text;html=1;strokeColor=none;fillColor=none;align=center;verticalAlign=middle;whiteSpace=wrap;rounded=0;fontSize=8;" vertex="1" parent="1">
          <mxGeometry x="440" y="310" width="10" height="10" as="geometry" />
        </mxCell>
        <mxCell id="qTwooiuULq-QE-bd1LSr-19" value="M1" style="text;html=1;strokeColor=none;fillColor=none;align=center;verticalAlign=middle;whiteSpace=wrap;rounded=0;fontSize=8;" vertex="1" parent="1">
          <mxGeometry x="360" y="310" width="10" height="10" as="geometry" />
        </mxCell>
        <mxCell id="qTwooiuULq-QE-bd1LSr-20" value="M3" style="text;html=1;strokeColor=none;fillColor=none;align=center;verticalAlign=middle;whiteSpace=wrap;rounded=0;fontSize=8;" vertex="1" parent="1">
          <mxGeometry x="200" y="310" width="10" height="10" as="geometry" />
        </mxCell>
        <mxCell id="qTwooiuULq-QE-bd1LSr-21" value="M2" style="text;html=1;strokeColor=none;fillColor=none;align=center;verticalAlign=middle;whiteSpace=wrap;rounded=0;fontSize=8;" vertex="1" parent="1">
          <mxGeometry x="280" y="310" width="10" height="10" as="geometry" />
        </mxCell>
        <mxCell id="qTwooiuULq-QE-bd1LSr-24" value="rs2" style="rounded=0;whiteSpace=wrap;html=1;" vertex="1" parent="1">
          <mxGeometry x="160" y="170" width="130" height="30" as="geometry" />
        </mxCell>
        <mxCell id="qTwooiuULq-QE-bd1LSr-25" value="rs1" style="rounded=0;whiteSpace=wrap;html=1;" vertex="1" parent="1">
          <mxGeometry x="310" y="170" width="130" height="30" as="geometry" />
        </mxCell>
        <mxCell id="qTwooiuULq-QE-bd1LSr-26" value="31" style="text;html=1;strokeColor=none;fillColor=none;align=center;verticalAlign=middle;whiteSpace=wrap;rounded=0;fontSize=8;" vertex="1" parent="1">
          <mxGeometry x="160" y="160" width="10" height="10" as="geometry" />
        </mxCell>
        <mxCell id="qTwooiuULq-QE-bd1LSr-27" value="0" style="text;html=1;strokeColor=none;fillColor=none;align=center;verticalAlign=middle;whiteSpace=wrap;rounded=0;fontSize=8;" vertex="1" parent="1">
          <mxGeometry x="280" y="160" width="10" height="10" as="geometry" />
        </mxCell>
        <mxCell id="qTwooiuULq-QE-bd1LSr-28" value="31" style="text;html=1;strokeColor=none;fillColor=none;align=center;verticalAlign=middle;whiteSpace=wrap;rounded=0;fontSize=8;" vertex="1" parent="1">
          <mxGeometry x="310" y="160" width="10" height="10" as="geometry" />
        </mxCell>
        <mxCell id="qTwooiuULq-QE-bd1LSr-29" value="0" style="text;html=1;strokeColor=none;fillColor=none;align=center;verticalAlign=middle;whiteSpace=wrap;rounded=0;fontSize=8;" vertex="1" parent="1">
          <mxGeometry x="430" y="160" width="10" height="10" as="geometry" />
        </mxCell>
        <mxCell id="qTwooiuULq-QE-bd1LSr-30" value="rd" style="rounded=0;whiteSpace=wrap;html=1;" vertex="1" parent="1">
          <mxGeometry x="235" y="410" width="130" height="30" as="geometry" />
        </mxCell>
        <mxCell id="qTwooiuULq-QE-bd1LSr-31" value="31" style="text;html=1;strokeColor=none;fillColor=none;align=center;verticalAlign=middle;whiteSpace=wrap;rounded=0;fontSize=8;" vertex="1" parent="1">
          <mxGeometry x="235" y="400" width="10" height="10" as="geometry" />
        </mxCell>
        <mxCell id="qTwooiuULq-QE-bd1LSr-32" value="0" style="text;html=1;strokeColor=none;fillColor=none;align=center;verticalAlign=middle;whiteSpace=wrap;rounded=0;fontSize=8;" vertex="1" parent="1">
          <mxGeometry x="355" y="400" width="10" height="10" as="geometry" />
        </mxCell>
        <mxCell id="qTwooiuULq-QE-bd1LSr-33" value="&lt;font style=&quot;font-size: 8px;&quot;&gt;rs1[7:0]&lt;/font&gt;" style="text;html=1;strokeColor=none;fillColor=none;align=center;verticalAlign=middle;whiteSpace=wrap;rounded=0;" vertex="1" parent="1">
          <mxGeometry x="420" y="210" width="40" height="30" as="geometry" />
        </mxCell>
        <mxCell id="qTwooiuULq-QE-bd1LSr-34" value="&lt;font style=&quot;font-size: 8px;&quot;&gt;rs2[7:0]&lt;/font&gt;" style="text;html=1;strokeColor=none;fillColor=none;align=center;verticalAlign=middle;whiteSpace=wrap;rounded=0;" vertex="1" parent="1">
          <mxGeometry x="380" y="210" width="40" height="30" as="geometry" />
        </mxCell>
        <mxCell id="qTwooiuULq-QE-bd1LSr-35" value="&lt;font style=&quot;font-size: 8px;&quot;&gt;rs1[31:24]&lt;/font&gt;" style="text;html=1;strokeColor=none;fillColor=none;align=center;verticalAlign=middle;whiteSpace=wrap;rounded=0;" vertex="1" parent="1">
          <mxGeometry x="180" y="210" width="40" height="30" as="geometry" />
        </mxCell>
        <mxCell id="qTwooiuULq-QE-bd1LSr-36" value="&lt;font style=&quot;font-size: 8px;&quot;&gt;rs2[31:24]&lt;/font&gt;" style="text;html=1;strokeColor=none;fillColor=none;align=center;verticalAlign=middle;whiteSpace=wrap;rounded=0;" vertex="1" parent="1">
          <mxGeometry x="140" y="210" width="40" height="30" as="geometry" />
        </mxCell>
        <mxCell id="qTwooiuULq-QE-bd1LSr-39" value="&lt;div&gt;M0[15:0]&lt;/div&gt;" style="text;html=1;strokeColor=none;fillColor=none;align=center;verticalAlign=middle;whiteSpace=wrap;rounded=0;fontSize=8;" vertex="1" parent="1">
          <mxGeometry x="400" y="370" width="40" height="10" as="geometry" />
        </mxCell>
        <mxCell id="qTwooiuULq-QE-bd1LSr-40" value="&lt;div&gt;M1[15:0]&lt;/div&gt;" style="text;html=1;strokeColor=none;fillColor=none;align=center;verticalAlign=middle;whiteSpace=wrap;rounded=0;fontSize=8;" vertex="1" parent="1">
          <mxGeometry x="320" y="370" width="40" height="10" as="geometry" />
        </mxCell>
        <mxCell id="qTwooiuULq-QE-bd1LSr-41" value="&lt;div&gt;M2[15:0]&lt;/div&gt;" style="text;html=1;strokeColor=none;fillColor=none;align=center;verticalAlign=middle;whiteSpace=wrap;rounded=0;fontSize=8;" vertex="1" parent="1">
          <mxGeometry x="240" y="370" width="40" height="10" as="geometry" />
        </mxCell>
        <mxCell id="qTwooiuULq-QE-bd1LSr-42" value="&lt;div&gt;M3[15:0]&lt;/div&gt;" style="text;html=1;strokeColor=none;fillColor=none;align=center;verticalAlign=middle;whiteSpace=wrap;rounded=0;fontSize=8;" vertex="1" parent="1">
          <mxGeometry x="160" y="370" width="40" height="10" as="geometry" />
        </mxCell>
        <mxCell id="9mC7oX22zAmJfiWUvBk6-1" value="" style="endArrow=none;dashed=1;html=1;dashPattern=1 3;strokeWidth=2;rounded=0;exitX=0;exitY=1;exitDx=0;exitDy=0;" edge="1" parent="1" source="qTwooiuULq-QE-bd1LSr-31">
          <mxGeometry width="50" height="50" relative="1" as="geometry">
            <mxPoint x="250" y="450" as="sourcePoint" />
            <mxPoint x="160" y="390" as="targetPoint" />
          </mxGeometry>
        </mxCell>
        <mxCell id="9mC7oX22zAmJfiWUvBk6-2" value="" style="endArrow=none;dashed=1;html=1;dashPattern=1 3;strokeWidth=2;rounded=0;exitX=1;exitY=1;exitDx=0;exitDy=0;" edge="1" parent="1" source="qTwooiuULq-QE-bd1LSr-32">
          <mxGeometry width="50" height="50" relative="1" as="geometry">
            <mxPoint x="400" y="460" as="sourcePoint" />
            <mxPoint x="440" y="390" as="targetPoint" />
          </mxGeometry>
        </mxCell>
        <mxCell id="9mC7oX22zAmJfiWUvBk6-3" value="" style="endArrow=none;dashed=1;html=1;dashPattern=1 3;strokeWidth=2;rounded=0;" edge="1" parent="1">
          <mxGeometry width="50" height="50" relative="1" as="geometry">
            <mxPoint x="340" y="225" as="sourcePoint" />
            <mxPoint x="260" y="225" as="targetPoint" />
          </mxGeometry>
        </mxCell>
      </root>
    </mxGraphModel>
  </diagram>
  <diagram id="ayIITh4heMZsH7fD5sNS" name="Page-3">
    <mxGraphModel dx="894" dy="528" grid="1" gridSize="10" guides="1" tooltips="1" connect="1" arrows="1" fold="1" page="1" pageScale="1" pageWidth="850" pageHeight="1100" math="0" shadow="0">
      <root>
        <mxCell id="0" />
        <mxCell id="1" parent="0" />
        <mxCell id="W84BVHi3a5z_5w8OkmjU-1" value="M1[15:0]" style="rounded=0;whiteSpace=wrap;html=1;" vertex="1" parent="1">
          <mxGeometry x="120" y="250" width="160" height="30" as="geometry" />
        </mxCell>
        <mxCell id="W84BVHi3a5z_5w8OkmjU-2" value="M0[15:0]" style="rounded=0;whiteSpace=wrap;html=1;" vertex="1" parent="1">
          <mxGeometry x="280" y="250" width="160" height="30" as="geometry" />
        </mxCell>
        <mxCell id="W84BVHi3a5z_5w8OkmjU-3" value="M2[15:8]" style="rounded=0;whiteSpace=wrap;html=1;" vertex="1" parent="1">
          <mxGeometry x="200" y="290" width="80" height="30" as="geometry" />
        </mxCell>
        <mxCell id="W84BVHi3a5z_5w8OkmjU-4" value="M0[15:8]" style="rounded=0;whiteSpace=wrap;html=1;" vertex="1" parent="1">
          <mxGeometry x="360" y="290" width="80" height="30" as="geometry" />
        </mxCell>
        <mxCell id="W84BVHi3a5z_5w8OkmjU-5" value="M3[15:8]" style="rounded=0;whiteSpace=wrap;html=1;" vertex="1" parent="1">
          <mxGeometry x="120" y="290" width="80" height="30" as="geometry" />
        </mxCell>
        <mxCell id="W84BVHi3a5z_5w8OkmjU-6" value="M1[15:8]" style="rounded=0;whiteSpace=wrap;html=1;" vertex="1" parent="1">
          <mxGeometry x="280" y="290" width="80" height="30" as="geometry" />
        </mxCell>
        <mxCell id="W84BVHi3a5z_5w8OkmjU-11" value="M2[7:0]" style="rounded=0;whiteSpace=wrap;html=1;" vertex="1" parent="1">
          <mxGeometry x="200" y="330" width="80" height="30" as="geometry" />
        </mxCell>
        <mxCell id="W84BVHi3a5z_5w8OkmjU-12" value="M0[7:0]" style="rounded=0;whiteSpace=wrap;html=1;" vertex="1" parent="1">
          <mxGeometry x="360" y="330" width="80" height="30" as="geometry" />
        </mxCell>
        <mxCell id="W84BVHi3a5z_5w8OkmjU-13" value="M3[7:0]" style="rounded=0;whiteSpace=wrap;html=1;" vertex="1" parent="1">
          <mxGeometry x="120" y="330" width="80" height="30" as="geometry" />
        </mxCell>
        <mxCell id="W84BVHi3a5z_5w8OkmjU-14" value="M1[7:0]" style="rounded=0;whiteSpace=wrap;html=1;" vertex="1" parent="1">
          <mxGeometry x="280" y="330" width="80" height="30" as="geometry" />
        </mxCell>
        <mxCell id="W84BVHi3a5z_5w8OkmjU-15" value="Two 8-bit multiplications with two 16-bit outputs" style="text;html=1;strokeColor=none;fillColor=none;align=left;verticalAlign=middle;whiteSpace=wrap;rounded=0;" vertex="1" parent="1">
          <mxGeometry x="480" y="250" width="200" height="30" as="geometry" />
        </mxCell>
        <mxCell id="W84BVHi3a5z_5w8OkmjU-16" value="Four 8-bit multiplications returning the 8 MSBs of each output" style="text;html=1;strokeColor=none;fillColor=none;align=left;verticalAlign=middle;whiteSpace=wrap;rounded=0;" vertex="1" parent="1">
          <mxGeometry x="480" y="290" width="200" height="30" as="geometry" />
        </mxCell>
        <mxCell id="W84BVHi3a5z_5w8OkmjU-17" value="Four 8-bit multiplications returning the 8 LSBs of each output" style="text;html=1;strokeColor=none;fillColor=none;align=left;verticalAlign=middle;whiteSpace=wrap;rounded=0;" vertex="1" parent="1">
          <mxGeometry x="480" y="330" width="200" height="30" as="geometry" />
        </mxCell>
      </root>
    </mxGraphModel>
  </diagram>
  <diagram id="8iZMmochNuqG7revQU4c" name="Page-4">
    <mxGraphModel dx="1080" dy="638" grid="1" gridSize="10" guides="1" tooltips="1" connect="1" arrows="1" fold="1" page="1" pageScale="1" pageWidth="850" pageHeight="1100" math="0" shadow="0">
      <root>
        <mxCell id="0" />
        <mxCell id="1" parent="0" />
        <mxCell id="OedEa2W-GmDTR7j3LDOm-1" value="opcode" style="rounded=0;whiteSpace=wrap;html=1;" vertex="1" parent="1">
          <mxGeometry x="540" y="210" width="120" height="30" as="geometry" />
        </mxCell>
        <mxCell id="OedEa2W-GmDTR7j3LDOm-2" value="rd" style="rounded=0;whiteSpace=wrap;html=1;" vertex="1" parent="1">
          <mxGeometry x="440" y="210" width="100" height="30" as="geometry" />
        </mxCell>
        <mxCell id="OedEa2W-GmDTR7j3LDOm-3" value="rs1" style="rounded=0;whiteSpace=wrap;html=1;" vertex="1" parent="1">
          <mxGeometry x="280" y="210" width="100" height="30" as="geometry" />
        </mxCell>
        <mxCell id="OedEa2W-GmDTR7j3LDOm-4" value="rs2" style="rounded=0;whiteSpace=wrap;html=1;" vertex="1" parent="1">
          <mxGeometry x="180" y="210" width="100" height="30" as="geometry" />
        </mxCell>
        <mxCell id="OedEa2W-GmDTR7j3LDOm-5" value="funct3" style="rounded=0;whiteSpace=wrap;html=1;" vertex="1" parent="1">
          <mxGeometry x="380" y="210" width="60" height="30" as="geometry" />
        </mxCell>
        <mxCell id="OedEa2W-GmDTR7j3LDOm-6" value="funct7" style="rounded=0;whiteSpace=wrap;html=1;" vertex="1" parent="1">
          <mxGeometry x="40" y="210" width="140" height="30" as="geometry" />
        </mxCell>
        <mxCell id="OedEa2W-GmDTR7j3LDOm-7" value="11" style="rounded=0;whiteSpace=wrap;html=1;" vertex="1" parent="1">
          <mxGeometry x="620" y="250" width="40" height="30" as="geometry" />
        </mxCell>
        <mxCell id="OedEa2W-GmDTR7j3LDOm-8" value="00010" style="rounded=0;whiteSpace=wrap;html=1;" vertex="1" parent="1">
          <mxGeometry x="540" y="250" width="80" height="30" as="geometry" />
        </mxCell>
        <mxCell id="OedEa2W-GmDTR7j3LDOm-10" value="32-bit R-Type Instruction Prefix" style="text;html=1;strokeColor=none;fillColor=none;align=center;verticalAlign=middle;whiteSpace=wrap;rounded=0;" vertex="1" parent="1">
          <mxGeometry x="560" y="320" width="100" height="30" as="geometry" />
        </mxCell>
        <mxCell id="OedEa2W-GmDTR7j3LDOm-11" value="opcode reserved for &#39;custom instruction 0&#39;" style="text;html=1;strokeColor=none;fillColor=none;align=center;verticalAlign=middle;whiteSpace=wrap;rounded=0;" vertex="1" parent="1">
          <mxGeometry x="425" y="320" width="120" height="30" as="geometry" />
        </mxCell>
        <mxCell id="OedEa2W-GmDTR7j3LDOm-12" value="&lt;div&gt;000 - Dual Operation with 16-bit output&lt;br&gt;001 - Quad operation with upper 8-bit output&lt;/div&gt;&lt;div&gt;010 - Quad operation with lower 8-bit output&lt;/div&gt;&lt;div&gt;011 -&amp;gt; 111 - Invalid opcodes&lt;br&gt;&lt;/div&gt;" style="text;html=1;strokeColor=none;fillColor=none;align=left;verticalAlign=middle;whiteSpace=wrap;rounded=0;" vertex="1" parent="1">
          <mxGeometry x="360" y="110" width="240" height="70" as="geometry" />
        </mxCell>
        <mxCell id="OedEa2W-GmDTR7j3LDOm-13" value="000_0000 - Operations performed with exact multplication&lt;br&gt;000_0001 - Operations performed with approximate circuits" style="text;html=1;strokeColor=none;fillColor=none;align=left;verticalAlign=middle;whiteSpace=wrap;rounded=0;" vertex="1" parent="1">
          <mxGeometry x="40" y="320" width="320" height="30" as="geometry" />
        </mxCell>
        <mxCell id="OedEa2W-GmDTR7j3LDOm-17" value="" style="endArrow=classic;html=1;rounded=0;" edge="1" parent="1">
          <mxGeometry width="50" height="50" relative="1" as="geometry">
            <mxPoint x="530" y="320" as="sourcePoint" />
            <mxPoint x="560" y="290" as="targetPoint" />
          </mxGeometry>
        </mxCell>
        <mxCell id="OedEa2W-GmDTR7j3LDOm-19" value="" style="endArrow=classic;html=1;rounded=0;exitX=0.801;exitY=-0.067;exitDx=0;exitDy=0;exitPerimeter=0;" edge="1" parent="1" source="OedEa2W-GmDTR7j3LDOm-10">
          <mxGeometry width="50" height="50" relative="1" as="geometry">
            <mxPoint x="610" y="320" as="sourcePoint" />
            <mxPoint x="640" y="290" as="targetPoint" />
          </mxGeometry>
        </mxCell>
        <mxCell id="OedEa2W-GmDTR7j3LDOm-20" value="" style="endArrow=classic;html=1;rounded=0;" edge="1" parent="1">
          <mxGeometry width="50" height="50" relative="1" as="geometry">
            <mxPoint x="180" y="160" as="sourcePoint" />
            <mxPoint x="220" y="200" as="targetPoint" />
          </mxGeometry>
        </mxCell>
        <mxCell id="OedEa2W-GmDTR7j3LDOm-21" value="" style="endArrow=classic;html=1;rounded=0;" edge="1" parent="1">
          <mxGeometry width="50" height="50" relative="1" as="geometry">
            <mxPoint x="180" y="160" as="sourcePoint" />
            <mxPoint x="310" y="200" as="targetPoint" />
          </mxGeometry>
        </mxCell>
        <mxCell id="OedEa2W-GmDTR7j3LDOm-22" value="source register address" style="text;html=1;strokeColor=none;fillColor=none;align=center;verticalAlign=middle;whiteSpace=wrap;rounded=0;" vertex="1" parent="1">
          <mxGeometry x="110" y="130" width="120" height="30" as="geometry" />
        </mxCell>
        <mxCell id="OedEa2W-GmDTR7j3LDOm-24" value="destination register address" style="text;html=1;strokeColor=none;fillColor=none;align=center;verticalAlign=middle;whiteSpace=wrap;rounded=0;" vertex="1" parent="1">
          <mxGeometry x="360" y="270" width="120" height="30" as="geometry" />
        </mxCell>
        <mxCell id="OedEa2W-GmDTR7j3LDOm-25" value="" style="endArrow=classic;html=1;rounded=0;exitX=0.882;exitY=-0.038;exitDx=0;exitDy=0;exitPerimeter=0;" edge="1" parent="1" source="OedEa2W-GmDTR7j3LDOm-24">
          <mxGeometry width="50" height="50" relative="1" as="geometry">
            <mxPoint x="440" y="300" as="sourcePoint" />
            <mxPoint x="490" y="250" as="targetPoint" />
          </mxGeometry>
        </mxCell>
        <mxCell id="OedEa2W-GmDTR7j3LDOm-26" value="" style="endArrow=classic;html=1;rounded=0;" edge="1" parent="1">
          <mxGeometry width="50" height="50" relative="1" as="geometry">
            <mxPoint x="160" y="320" as="sourcePoint" />
            <mxPoint x="120" y="250" as="targetPoint" />
          </mxGeometry>
        </mxCell>
        <mxCell id="OedEa2W-GmDTR7j3LDOm-27" value="" style="endArrow=classic;html=1;rounded=0;exitX=0.207;exitY=1.013;exitDx=0;exitDy=0;exitPerimeter=0;" edge="1" parent="1" source="OedEa2W-GmDTR7j3LDOm-12">
          <mxGeometry width="50" height="50" relative="1" as="geometry">
            <mxPoint x="450" y="270" as="sourcePoint" />
            <mxPoint x="410" y="200" as="targetPoint" />
          </mxGeometry>
        </mxCell>
        <mxCell id="buAuXUts5e6fQtB0ryXd-1" value="31" style="text;html=1;strokeColor=none;fillColor=none;align=center;verticalAlign=middle;whiteSpace=wrap;rounded=0;fontSize=8;" vertex="1" parent="1">
          <mxGeometry x="40" y="200" width="10" height="10" as="geometry" />
        </mxCell>
        <mxCell id="buAuXUts5e6fQtB0ryXd-2" value="25" style="text;html=1;strokeColor=none;fillColor=none;align=center;verticalAlign=middle;whiteSpace=wrap;rounded=0;fontSize=8;" vertex="1" parent="1">
          <mxGeometry x="170" y="200" width="10" height="10" as="geometry" />
        </mxCell>
        <mxCell id="buAuXUts5e6fQtB0ryXd-3" value="24" style="text;html=1;strokeColor=none;fillColor=none;align=center;verticalAlign=middle;whiteSpace=wrap;rounded=0;fontSize=8;" vertex="1" parent="1">
          <mxGeometry x="180" y="200" width="10" height="10" as="geometry" />
        </mxCell>
        <mxCell id="buAuXUts5e6fQtB0ryXd-4" value="20" style="text;html=1;strokeColor=none;fillColor=none;align=center;verticalAlign=middle;whiteSpace=wrap;rounded=0;fontSize=8;" vertex="1" parent="1">
          <mxGeometry x="270" y="200" width="10" height="10" as="geometry" />
        </mxCell>
        <mxCell id="buAuXUts5e6fQtB0ryXd-5" value="19" style="text;html=1;strokeColor=none;fillColor=none;align=center;verticalAlign=middle;whiteSpace=wrap;rounded=0;fontSize=8;" vertex="1" parent="1">
          <mxGeometry x="280" y="200" width="10" height="10" as="geometry" />
        </mxCell>
        <mxCell id="buAuXUts5e6fQtB0ryXd-6" value="15" style="text;html=1;strokeColor=none;fillColor=none;align=center;verticalAlign=middle;whiteSpace=wrap;rounded=0;fontSize=8;" vertex="1" parent="1">
          <mxGeometry x="370" y="200" width="10" height="10" as="geometry" />
        </mxCell>
        <mxCell id="buAuXUts5e6fQtB0ryXd-7" value="14" style="text;html=1;strokeColor=none;fillColor=none;align=center;verticalAlign=middle;whiteSpace=wrap;rounded=0;fontSize=8;" vertex="1" parent="1">
          <mxGeometry x="380" y="200" width="10" height="10" as="geometry" />
        </mxCell>
        <mxCell id="buAuXUts5e6fQtB0ryXd-8" value="12" style="text;html=1;strokeColor=none;fillColor=none;align=center;verticalAlign=middle;whiteSpace=wrap;rounded=0;fontSize=8;" vertex="1" parent="1">
          <mxGeometry x="430" y="200" width="10" height="10" as="geometry" />
        </mxCell>
        <mxCell id="buAuXUts5e6fQtB0ryXd-9" value="11" style="text;html=1;strokeColor=none;fillColor=none;align=center;verticalAlign=middle;whiteSpace=wrap;rounded=0;fontSize=8;" vertex="1" parent="1">
          <mxGeometry x="440" y="200" width="10" height="10" as="geometry" />
        </mxCell>
        <mxCell id="buAuXUts5e6fQtB0ryXd-10" value="7" style="text;html=1;strokeColor=none;fillColor=none;align=center;verticalAlign=middle;whiteSpace=wrap;rounded=0;fontSize=8;" vertex="1" parent="1">
          <mxGeometry x="530" y="200" width="10" height="10" as="geometry" />
        </mxCell>
        <mxCell id="buAuXUts5e6fQtB0ryXd-11" value="6" style="text;html=1;strokeColor=none;fillColor=none;align=center;verticalAlign=middle;whiteSpace=wrap;rounded=0;fontSize=8;" vertex="1" parent="1">
          <mxGeometry x="541" y="200" width="10" height="10" as="geometry" />
        </mxCell>
        <mxCell id="buAuXUts5e6fQtB0ryXd-12" value="0" style="text;html=1;strokeColor=none;fillColor=none;align=center;verticalAlign=middle;whiteSpace=wrap;rounded=0;fontSize=8;" vertex="1" parent="1">
          <mxGeometry x="650" y="200" width="10" height="10" as="geometry" />
        </mxCell>
      </root>
    </mxGraphModel>
  </diagram>
</mxfile>
